<svg xmlns="http://www.w3.org/2000/svg" viewBox="0 0 64 64"><path fill="#faefde" d="M17.316,4.938h28.757c1.657,0,3,1.343,3,3v48c0,1.657-1.343,3-3,3h-38c-1.657,0-3-1.343-3-3V17.18 c0-0.796,0.316-1.559,0.879-2.121l9.243-9.242C15.758,5.254,16.521,4.938,17.316,4.938z"></path><path fill="#fff7f0" d="M5.074 59L4.926 49.54 48.41 6.057 49.074 29 19.074 59zM4.926 39.147L39.136 4.937 44.886 5.188 5.074 45zM4.926 33.147L33.074 5 36.074 5 4.926 36.147z"></path><path fill="#fff" d="M39.576 12.996L40.814 15.26 43.078 16.498 40.814 17.736 39.576 20 38.337 17.736 36.074 16.498 38.337 15.26zM24.492 11L25.347 12.564 26.911 13.419 25.347 14.274 24.492 15.838 23.637 14.274 22.074 13.419 23.637 12.564zM10.721 42L11.304 43.065 12.369 43.648 11.304 44.231 10.721 45.296 10.139 44.231 9.074 43.648 10.139 43.065z"></path><path fill="#bbdef9" d="M17.074 5L17.074 17 5.074 17z"></path><path fill="#85cbf8" d="M58,23H16c-0.552,0-1,0.448-1,1v20c0,0.552,0.448,1,1,1h42c0.552,0,1-0.448,1-1V24 C59,23.448,58.552,23,58,23z"></path><g><path fill="#8d6c9f" d="M9 52c-.553 0-1 .447-1 1v2c0 .553.447 1 1 1s1-.447 1-1v-2C10 52.447 9.553 52 9 52zM14 52c-.553 0-1 .447-1 1v2c0 .553.447 1 1 1s1-.447 1-1v-2C15 52.447 14.553 52 14 52zM19 56c.553 0 1-.447 1-1v-2c0-.553-.447-1-1-1s-1 .447-1 1v2C18 55.553 18.447 56 19 56zM24 56c.553 0 1-.447 1-1v-2c0-.553-.447-1-1-1s-1 .447-1 1v2C23 55.553 23.447 56 24 56zM29 56c.553 0 1-.447 1-1v-2c0-.553-.447-1-1-1s-1 .447-1 1v2C28 55.553 28.447 56 29 56zM34 56c.553 0 1-.447 1-1v-2c0-.553-.447-1-1-1s-1 .447-1 1v2C33 55.553 33.447 56 34 56zM39 56c.553 0 1-.447 1-1v-2c0-.553-.447-1-1-1s-1 .447-1 1v2C38 55.553 38.447 56 39 56zM44 56c.553 0 1-.447 1-1v-2c0-.553-.447-1-1-1s-1 .447-1 1v2C43 55.553 43.447 56 44 56z"></path><path fill="#8d6c9f" d="M58,22h-8V7c0-1.65-1.35-3-3-3H17.66c-1.34,0-2.6,0.52-3.54,1.46l-8.66,8.66 C4.52,15.07,4,16.32,4,17.66V57c0,1.65,1.35,3,3,3h40c1.65,0,3-1.35,3-3V46h8c1.1,0,2-0.9,2-2V24C60,22.9,59.1,22,58,22z M15.54,6.88c0.142-0.144,0.296-0.271,0.46-0.381V15c0,0.552-0.448,1-1,1H6.502c0.11-0.166,0.236-0.32,0.378-0.46L15.54,6.88z M48,57c0,0.55-0.45,1-1,1H7c-0.55,0-1-0.45-1-1V18h9c1.654,0,3-1.346,3-3V6h29c0.55,0,1,0.45,1,1v15H16c-1.1,0-2,0.9-2,2v20 c0,1.1,0.9,2,2,2h32V57z M58,44h-8h-2H16V24h32h2h8V44z"></path><path fill="#fff" d="M36 28h-5c-.553 0-1 .447-1 1s.447 1 1 1h3.523l-3.452 8.629c-.205.513.045 1.095.558 1.3C31.75 39.978 31.876 40 32 40c.396 0 .772-.237.929-.629l4-10c.123-.308.085-.657-.101-.932C36.642 28.165 36.332 28 36 28zM44 38h-2.382l2.276-4.553c.155-.31.139-.678-.044-.973S43.347 32 43 32h-4c-.553 0-1 .447-1 1s.447 1 1 1h2.382l-2.276 4.553c-.155.31-.139.678.044.973S39.653 40 40 40h4c.553 0 1-.447 1-1S44.553 38 44 38z"></path></g></svg>
