<svg xmlns="http://www.w3.org/2000/svg" data-name="Layer 1" viewBox="0 0 64 64"><path fill="#faefde" d="M21.24,4.94H50a3,3,0,0,1,3,3v48a3,3,0,0,1-3,3H12a3,3,0,0,1-3-3V17.18a3,3,0,0,1,.88-2.12l9.24-9.24A3,3,0,0,1,21.24,4.94Z"></path><path fill="#fff7f0" d="M9 59L8.85 49.54 52.34 6.06 53 29 23 59 9 59zM8.85 39.15L43.06 4.94 48.81 5.19 9 45 8.85 39.15zM8.85 33.15L37 5 40 5 8.85 36.15 8.85 33.15z"></path><path fill="#fff" d="M43.5 21L44.74 23.26 47 24.5 44.74 25.74 43.5 28 42.26 25.74 40 24.5 42.26 23.26 43.5 21zM26.42 15L27.27 16.56 28.84 17.42 27.27 18.27 26.42 19.84 25.56 18.27 24 17.42 25.56 16.56 26.42 15zM19.65 41L20.23 42.06 21.3 42.65 20.23 43.23 19.65 44.3 19.07 43.23 18 42.65 19.07 42.06 19.65 41z"></path><path fill="#bbdef9" d="M21 5L21 17 9 17 21 5z"></path><path fill="#f9e3ae" d="M29 5H37V29H29z"></path><path fill="#ced8ed" d="M37.23,41H28.77a3,3,0,0,1-2.92-3.67l1.08-4.67A6,6,0,0,1,32.77,28h.45a6,6,0,0,1,5.85,4.65l1.08,4.67A3,3,0,0,1,37.23,41Z"></path><path fill="#8d6c9f" d="M36,6V27.59A7,7,0,0,0,33.23,27h-.45a7,7,0,0,0-2.77.59V9a1,1,0,0,0-2,0V28.9a7,7,0,0,0-2,3.53L24.87,37.1a4,4,0,0,0,3.9,4.9h8.46a4,4,0,0,0,3.9-4.9L40,32.43a7,7,0,0,0-2-3.53V6Zm2.1,26.88,1.08,4.67A2,2,0,0,1,37.23,40H28.77a2,2,0,0,1-1.95-2.45l1.08-4.67A5,5,0,0,1,32.77,29h.45A5,5,0,0,1,38.1,32.88Z"></path><path fill="#8d6c9f" d="M31 36h4a1 1 0 0 0 0-2H31a1 1 0 0 0 0 2zM17 52H13a1 1 0 0 0 0 2h4a1 1 0 0 0 0-2zM49 52H21a1 1 0 0 0 0 2H49a1 1 0 0 0 0-2z"></path><path fill="#8d6c9f" d="M51,4H21.66a5,5,0,0,0-3.54,1.46L9.46,14.12A5,5,0,0,0,8,17.66V57a3,3,0,0,0,3,3H51a3,3,0,0,0,3-3V7A3,3,0,0,0,51,4ZM19.54,6.88A3,3,0,0,1,20,6.5V15a1,1,0,0,1-1,1H10.5a3,3,0,0,1,.38-.46ZM52,57a1,1,0,0,1-1,1H11a1,1,0,0,1-1-1V18h9a3,3,0,0,0,3-3V6H51a1,1,0,0,1,1,1Z"></path><path fill="#8d6c9f" d="M32 25h2a1 1 0 0 0 0-2H32a1 1 0 0 0 0 2zM32 10h2a1 1 0 0 0 0-2H32a1 1 0 0 0 0 2zM32 15h2a1 1 0 0 0 0-2H32a1 1 0 0 0 0 2zM32 20h2a1 1 0 0 0 0-2H32a1 1 0 0 0 0 2z"></path></svg>
